<svg width="19" height="12" viewBox="0 0 19 12" fill="none" xmlns="http://www.w3.org/2000/svg">
<path d="M9.50402 7.41123L2.39585 0.303372C2.2006 0.107656 1.93954 -9.62152e-06 1.66119 -9.60936e-06C1.38267 -9.59718e-06 1.12177 0.107656 0.926211 0.303372L0.303691 0.926201C0.107821 1.12161 -4.27466e-07 1.38282 -4.15299e-07 1.66118C-4.03132e-07 1.93954 0.107821 2.20044 0.303691 2.396L8.76657 10.859C8.96275 11.0554 9.22489 11.1629 9.50355 11.1621C9.78345 11.1629 10.0453 11.0555 10.2416 10.859L18.6963 2.40388C18.8922 2.20832 19 1.94741 19 1.6689C19 1.39054 18.8922 1.12964 18.6963 0.933925L18.0738 0.31125C17.6686 -0.0939291 17.009 -0.0939291 16.604 0.31125L9.50402 7.41123Z" fill="#2B3644"/>
</svg>
